<svg width="24" height="24" viewBox="0 0 24 24" fill="none" xmlns="http://www.w3.org/2000/svg">
<path fill-rule="evenodd" clip-rule="evenodd" d="M12.9435 4.02602C12.3311 3.82187 11.6689 3.82187 11.0565 4.02602C10.2554 4.29305 9.60494 4.88704 9.26648 5.66067L4.29336 17.0278C3.95427 17.8029 4.0018 18.6926 4.42153 19.4272C4.89779 20.2606 5.78414 20.775 6.74408 20.775H6.92373C7.72609 20.775 8.50456 20.5019 9.1311 20.0007L9.7821 19.4799C10.2335 19.1187 10.6648 18.7348 11.0744 18.33C10.2226 17.3536 9.47749 16.285 8.85401 15.142L8.80206 15.0467C8.06863 13.7021 8.26081 12.0406 9.27738 10.8969C10.7248 9.26858 13.2752 9.26858 14.7226 10.8969C15.7392 12.0406 15.9314 13.7021 15.1979 15.0467L15.146 15.142C14.5225 16.285 13.7774 17.3536 12.9256 18.33C13.3352 18.7348 13.7665 19.1187 14.2179 19.4799L14.8689 20.0007C15.4954 20.5019 16.2739 20.775 17.0763 20.775H17.2559C18.2159 20.775 19.1022 20.2606 19.5785 19.4272C19.9982 18.6926 20.0457 17.8029 19.7066 17.0278L14.7335 5.66067C14.3951 4.88704 13.7446 4.29305 12.9435 4.02602ZM12 19.3132C12.4361 19.7427 12.8948 20.1503 13.3746 20.5341L14.0256 21.0549C14.8915 21.7476 15.9674 22.125 17.0763 22.125H17.2559C18.7003 22.125 20.034 21.351 20.7506 20.097C21.3822 18.9917 21.4537 17.6529 20.9435 16.4867L15.9703 5.11957C15.4787 3.99589 14.534 3.13315 13.3704 2.7453C12.4809 2.44878 11.5191 2.44878 10.6296 2.7453C9.466 3.13315 8.52127 3.99589 8.02967 5.11957L3.05655 16.4867C2.54633 17.6529 2.61785 18.9917 3.2494 20.097C3.96602 21.351 5.29968 22.125 6.74408 22.125H6.92373C8.03264 22.125 9.10853 21.7476 9.97444 21.0549L10.6254 20.5341C11.1052 20.1503 11.5639 19.7427 12 19.3132ZM12 17.3365C12.7493 16.4628 13.407 15.5109 13.9608 14.4955L14.0128 14.4003C14.4727 13.5571 14.3527 12.5128 13.7136 11.7938C12.8032 10.7696 11.1968 10.7696 10.2864 11.7938C9.64725 12.5128 9.52729 13.5571 9.98722 14.4003L10.0392 14.4955C10.593 15.5109 11.2507 16.4628 12 17.3365Z" fill="white"/>
</svg>
