<svg width="24" height="24" viewBox="0 0 24 24" fill="none" xmlns="http://www.w3.org/2000/svg">
<path fill-rule="evenodd" clip-rule="evenodd" d="M12.9435 4.02606C12.3311 3.82191 11.6689 3.82191 11.0565 4.02606C10.2554 4.2931 9.60494 4.88708 9.26648 5.66071L4.29336 17.0278C3.95427 17.8029 4.0018 18.6927 4.42153 19.4272C4.89779 20.2607 5.78414 20.775 6.74408 20.775H6.92373C7.72609 20.775 8.50456 20.502 9.1311 20.0007L9.7821 19.4799C10.2335 19.1188 10.6648 18.7349 11.0744 18.33C10.2226 17.3536 9.47749 16.2851 8.85401 15.142L8.80206 15.0468C8.06863 13.7021 8.26081 12.0406 9.27738 10.897C10.7248 9.26863 13.2752 9.26863 14.7226 10.897C15.7392 12.0406 15.9314 13.7021 15.1979 15.0468L15.146 15.142C14.5225 16.2851 13.7774 17.3536 12.9256 18.33C13.3352 18.7349 13.7665 19.1188 14.2179 19.4799L14.8689 20.0007C15.4954 20.502 16.2739 20.775 17.0763 20.775H17.2559C18.2159 20.775 19.1022 20.2607 19.5785 19.4272C19.9982 18.6927 20.0457 17.8029 19.7066 17.0278L14.7335 5.66071C14.3951 4.88708 13.7446 4.2931 12.9435 4.02606ZM12 19.3132C12.4361 19.7427 12.8948 20.1503 13.3746 20.5341L14.0256 21.0549C14.8915 21.7476 15.9674 22.125 17.0763 22.125H17.2559C18.7003 22.125 20.034 21.3511 20.7506 20.097C21.3822 18.9918 21.4537 17.653 20.9435 16.4867L15.9703 5.11961C15.4787 3.99593 14.534 3.1332 13.3704 2.74534C12.4809 2.44882 11.5191 2.44882 10.6296 2.74534C9.466 3.1332 8.52127 3.99593 8.02967 5.11961L3.05655 16.4867C2.54633 17.653 2.61785 18.9918 3.2494 20.097C3.96602 21.3511 5.29968 22.125 6.74408 22.125H6.92373C8.03264 22.125 9.10853 21.7476 9.97444 21.0549L10.6254 20.5341C11.1052 20.1503 11.5639 19.7427 12 19.3132ZM12 17.3365C12.7493 16.4628 13.407 15.511 13.9608 14.4956L14.0128 14.4003C14.4727 13.5571 14.3527 12.5129 13.7136 11.7939C12.8032 10.7697 11.1968 10.7697 10.2864 11.7939C9.64725 12.5129 9.52729 13.5571 9.98722 14.4003L10.0392 14.4956C10.593 15.511 11.2507 16.4628 12 17.3365Z" fill="#131313"/>
</svg>
